<svg width="32" height="32" viewBox="0 0 32 32" fill="none" xmlns="http://www.w3.org/2000/svg">
<path d="M2.66666 16L2.27622 15.6877L2.02634 16L2.27622 16.3123L2.66666 16ZM14.6667 16.5C14.9428 16.5 15.1667 16.2761 15.1667 16C15.1667 15.7239 14.9428 15.5 14.6667 15.5V16.5ZM7.99999 9.33333L7.60956 9.02099L2.27622 15.6877L2.66666 16L3.05709 16.3123L8.39042 9.64568L7.99999 9.33333ZM2.66666 16L2.27622 16.3123L7.60956 22.979L7.99999 22.6667L8.39042 22.3543L3.05709 15.6877L2.66666 16ZM2.66666 16V16.5H14.6667V16V15.5H2.66666V16Z" fill="#FF0000"/>
<path d="M13.3333 10.8426V9.85134C13.3333 7.69355 13.3333 6.61466 13.9653 5.86867C14.5972 5.12268 15.6615 4.94531 17.7899 4.59058L20.0182 4.2192C24.3423 3.49851 26.5043 3.13817 27.9188 4.33643C29.3333 5.53469 29.3333 7.72658 29.3333 12.1103V19.8897C29.3333 24.2734 29.3333 26.4653 27.9188 27.6636C26.5043 28.8618 24.3423 28.5015 20.0182 27.7808L17.7899 27.4094C15.6615 27.0547 14.5972 26.8773 13.9653 26.1313C13.3333 25.3853 13.3333 24.3064 13.3333 22.1487V21.4213" stroke="#FF0000" stroke-width="1.5"/>
</svg>
