<svg width="40" height="40" viewBox="0 0 40 40" fill="none" xmlns="http://www.w3.org/2000/svg">
<path d="M28.3333 28.1134L28.3333 28.9799C28.3333 32.5564 28.3333 34.3447 27.184 35.3415C26.0347 36.3383 24.2644 36.0854 20.7239 35.5796L13.5858 34.5599C9.49223 33.9751 7.44546 33.6827 6.22273 32.2729C5 30.863 5 28.7955 5 24.6604L5 15.3396C5 11.2045 5 9.13694 6.22273 7.72712C7.44546 6.3173 9.49223 6.02491 13.5858 5.44011L20.7239 4.42039C24.2644 3.9146 26.0347 3.6617 27.184 4.65851C28.3333 5.65532 28.3333 7.44356 28.3333 11.0201L28.3333 11.5567" stroke="#222222" stroke-width="2"/>
<path d="M13.3333 20L12.9429 20.3124L12.693 20L12.9429 19.6877L13.3333 20ZM33.3333 19.5C33.6095 19.5 33.8333 19.7239 33.8333 20C33.8333 20.2762 33.6095 20.5 33.3333 20.5L33.3333 19.5ZM20 28.3333L19.6096 28.6457L12.9429 20.3124L13.3333 20L13.7238 19.6877L20.3904 28.021L20 28.3333ZM13.3333 20L12.9429 19.6877L19.6096 11.3543L20 11.6667L20.3904 11.979L13.7238 20.3124L13.3333 20ZM13.3333 20L13.3333 19.5L33.3333 19.5L33.3333 20L33.3333 20.5L13.3333 20.5L13.3333 20Z" fill="#222222"/>
</svg>
